<svg width="100" height="100" viewBox="0 0 100 100" fill="none" xmlns="http://www.w3.org/2000/svg">
<g clip-path="url(#clip0_1_190)">
<g clip-path="url(#clip1_1_190)">
<path d="M50 99C77.062 99 99 77.062 99 50C99 22.938 77.062 1 50 1C22.938 1 1 22.938 1 50C1 77.062 22.938 99 50 99Z" fill="#131313" fill-opacity="0.89"/>
<mask id="mask0_1_190" style="mask-type:luminance" maskUnits="userSpaceOnUse" x="22" y="22" width="56" height="56">
<path d="M78 22H22V78H78V22Z" fill="white"/>
</mask>
<g mask="url(#mask0_1_190)">
<path d="M72.2884 37.8045C71.9688 37.2463 71.5009 36.7875 70.9366 36.4788L51.68 25.9373C51.1653 25.6543 50.5874 25.5059 50 25.5059C49.4126 25.5059 48.8347 25.6543 48.32 25.9373L29.07 36.4766C28.5057 36.7853 28.0378 37.2441 27.7181 37.8023C27.4134 38.3306 27.2521 38.9293 27.25 39.5391V60.4604C27.2514 61.087 27.4211 61.7018 27.7412 62.2405C28.0614 62.7792 28.5203 63.2221 29.07 63.5229L48.32 74.0601C48.8343 74.3443 49.4124 74.4933 50 74.4933C50.5876 74.4933 51.1657 74.3443 51.68 74.0601L70.93 63.5229C71.4797 63.2221 71.9386 62.7792 72.2588 62.2405C72.5789 61.7018 72.7486 61.087 72.75 60.4604V39.5391C72.7496 38.9306 72.5905 38.3327 72.2884 37.8045ZM48.25 70.0395L41.25 66.207V55.2498C41.2493 54.9364 41.1645 54.629 41.0044 54.3597C40.8443 54.0903 40.6149 53.8689 40.34 53.7185L30.75 48.4685V41.4685L48.25 51.0498V70.0395ZM50 48.0048L32.6444 38.5023L40.1869 34.3745L49.1556 39.2854C49.4132 39.4263 49.702 39.5002 49.9956 39.5002C50.2892 39.5002 50.5781 39.4263 50.8356 39.2854L59.8044 34.3745L67.3469 38.5023L50 48.0048ZM69.25 48.4641L59.66 53.7141C59.3851 53.8645 59.1557 54.086 58.9956 54.3553C58.8355 54.6247 58.7507 54.9321 58.75 55.2454V66.2026L51.75 70.0351V51.0366L69.25 41.4554V48.4641Z" fill="white"/>
</g>
</g>
</g>
<defs>
<clipPath id="clip0_1_190">
<rect width="100" height="100" fill="white"/>
</clipPath>
<clipPath id="clip1_1_190">
<rect width="100" height="100" fill="white"/>
</clipPath>
</defs>
</svg>
