<svg width="47" height="47" viewBox="0 0 47 47" fill="none" xmlns="http://www.w3.org/2000/svg">
<mask id="mask0_1_467" style="mask-type:luminance" maskUnits="userSpaceOnUse" x="0" y="0" width="47" height="47">
<path d="M47 0H0V47H47V0Z" fill="white"/>
</mask>
<g mask="url(#mask0_1_467)">
<path d="M23.2089 4.40598C12.9846 4.562 4.62741 12.8677 4.40525 23.0976C4.32745 26.5384 5.18536 29.9359 6.88744 32.9273C6.95433 33.0442 7.05202 33.1404 7.16994 33.2056C7.28786 33.2707 7.42139 33.3021 7.55601 33.2965C7.69055 33.2908 7.82097 33.2481 7.93293 33.1733C8.04498 33.0985 8.13419 32.9943 8.19101 32.8721C9.56988 29.9436 10.2828 26.7458 10.2784 23.5089C10.2752 21.5262 10.7194 19.5683 11.578 17.7812C12.4366 15.9941 13.6874 14.4238 15.2373 13.1873C15.3893 13.0683 15.5632 12.9806 15.7492 12.929C15.9351 12.8773 16.1294 12.8628 16.3209 12.8863C16.5124 12.9097 16.6975 12.9706 16.8655 13.0656C17.0335 13.1606 17.1811 13.2876 17.3 13.4396C17.4189 13.5917 17.5066 13.7656 17.5582 13.9515C17.6099 14.1375 17.6244 14.3318 17.6009 14.5233C17.5775 14.7148 17.5166 14.8999 17.4216 15.0678C17.3266 15.2359 17.1996 15.3835 17.0476 15.5023C15.8494 16.4649 14.8831 17.6846 14.2202 19.0712C13.5572 20.4577 13.2146 21.9757 13.2177 23.5126C13.2226 27.9219 12.0535 32.2531 9.83048 36.0612C9.74806 36.2011 9.7144 36.3644 9.73463 36.5255C9.75486 36.6866 9.82796 36.8365 9.94244 36.9516C10.3096 37.3188 10.6933 37.686 11.0899 38.0201C11.1712 38.0884 11.2663 38.1382 11.3687 38.1662C11.4711 38.1942 11.5783 38.1996 11.683 38.1822C11.7877 38.1647 11.8874 38.1248 11.9752 38.0651C12.063 38.0054 12.1367 37.9275 12.1915 37.8365C13.8168 35.1383 14.9709 32.1831 15.6045 29.0974C15.6821 28.7157 15.9082 28.3804 16.2331 28.1654C16.558 27.9505 16.9549 27.8732 17.3367 27.9509C17.7184 28.0286 18.0537 28.2547 18.2687 28.5796C18.4838 28.9044 18.5609 29.3014 18.4833 29.6832C17.7731 33.1648 16.4642 36.4968 14.6149 39.5311C14.5628 39.6174 14.529 39.7135 14.5155 39.8134C14.5021 39.9132 14.5094 40.0149 14.5369 40.1118C14.5646 40.2087 14.6117 40.299 14.6757 40.3769C14.7396 40.4549 14.8189 40.5188 14.9087 40.5648C15.3621 40.7942 15.8267 41.0072 16.2985 41.2018C16.4614 41.2716 16.644 41.2802 16.8127 41.2258C16.9815 41.1715 17.1249 41.058 17.2164 40.9062C20.3706 35.6671 22.035 29.6665 22.0302 23.5511C22.0265 23.1741 22.165 22.8095 22.4183 22.5301C22.6714 22.2507 23.0206 22.0771 23.3962 22.0438C23.5975 22.0296 23.7996 22.0572 23.9899 22.1246C24.1802 22.1921 24.3544 22.298 24.5019 22.4359C24.6493 22.5737 24.7668 22.7404 24.847 22.9257C24.9271 23.1109 24.9683 23.3107 24.9677 23.5126C24.9751 29.7564 23.3815 35.8979 20.3393 41.3505C20.2808 41.4549 20.2487 41.5721 20.2458 41.6918C20.2428 41.8115 20.2693 41.9301 20.3226 42.0372C20.376 42.1444 20.4548 42.2369 20.5521 42.3066C20.6495 42.3764 20.7623 42.4213 20.881 42.4374C21.4379 42.5145 22.0015 42.5671 22.5718 42.5952C22.709 42.6004 22.8448 42.567 22.9639 42.4988C23.083 42.4307 23.1806 42.3305 23.2457 42.2098C26.299 36.4983 27.8993 30.123 27.9052 23.6466C27.9145 21.2139 26.0143 19.1504 23.5835 19.1045C22.9987 19.0932 22.4176 19.1986 21.8739 19.4143C21.3302 19.63 20.8349 19.9518 20.417 20.3609C19.999 20.77 19.6667 21.2582 19.4393 21.7972C19.2119 22.3361 19.0941 22.9148 19.0927 23.4997C19.0901 23.8665 18.9519 24.2193 18.7049 24.4904C18.4578 24.7615 18.1193 24.9318 17.7543 24.9685C17.5508 24.9866 17.3457 24.962 17.1522 24.8964C16.9587 24.8308 16.781 24.7254 16.6305 24.5872C16.48 24.449 16.36 24.2809 16.2781 24.0936C16.1963 23.9063 16.1545 23.704 16.1552 23.4997C16.1552 22.5288 16.3477 21.5674 16.7216 20.6714C17.0954 19.7754 17.6433 18.9624 18.3334 18.2795C19.0235 17.5964 19.8422 17.0571 20.7421 16.6927C21.642 16.3282 22.6052 16.1457 23.5761 16.156C27.6152 16.1982 30.8611 19.6754 30.8409 23.7127C30.823 29.701 29.5392 35.6179 27.0736 41.0751C27.0175 41.2009 26.998 41.3398 27.0171 41.4761C27.0362 41.6123 27.0932 41.7405 27.1816 41.8459C27.2701 41.9514 27.3863 42.0299 27.5172 42.0725C27.6481 42.115 27.7883 42.12 27.9218 42.0867C28.5587 41.9357 29.1875 41.7518 29.8055 41.536C29.9018 41.5017 29.9899 41.4479 30.0642 41.3777C30.1385 41.3075 30.1973 41.2226 30.237 41.1283C31.0918 39.1022 31.7963 37.0158 32.3446 34.8862C32.3928 34.6993 32.4773 34.5238 32.5934 34.3697C32.7095 34.2155 32.8548 34.0856 33.0209 33.9876C33.1872 33.8896 33.3711 33.8253 33.5621 33.7983C33.7532 33.7713 33.9478 33.7823 34.1346 33.8305C34.3214 33.8788 34.497 33.9633 34.6512 34.0793C34.8054 34.1954 34.9351 34.3407 35.0331 34.5069C35.1312 34.6731 35.1955 34.857 35.2225 35.0481C35.2494 35.2392 35.2385 35.4337 35.1902 35.6205C35.0532 36.1554 34.9063 36.6879 34.7496 37.2179C34.7035 37.3704 34.7083 37.5338 34.7633 37.6835C34.8183 37.8331 34.9204 37.9608 35.0544 38.0472C35.1883 38.1337 35.3467 38.1742 35.5057 38.1627C35.6647 38.1512 35.8156 38.0883 35.9357 37.9834C38.913 35.4267 41.0303 32.0148 41.9992 28.2119C42.9682 24.409 42.7418 20.3999 41.3509 16.7303C39.96 13.0606 37.4722 9.90867 34.2259 7.70345C30.9797 5.49823 27.1329 4.34681 23.2089 4.40598ZM36.3506 29.573C36.3059 29.9274 36.1337 30.2534 35.866 30.4899C35.5984 30.7265 35.2537 30.8573 34.8965 30.8582C34.8351 30.8581 34.7739 30.8545 34.7129 30.8471C34.5215 30.8233 34.3366 30.762 34.1688 30.6666C34.0011 30.5714 33.8538 30.444 33.7353 30.2917C33.6168 30.1395 33.5295 29.9653 33.4783 29.7793C33.4271 29.5934 33.4131 29.3991 33.437 29.2076C33.6711 27.3195 33.7888 25.4188 33.7895 23.5162C33.7855 20.7907 32.7011 18.1778 30.7738 16.2506C28.8466 14.3233 26.2337 13.2389 23.5082 13.2349C23.0786 13.2348 22.6494 13.2611 22.223 13.3139C21.8362 13.3626 21.4459 13.2557 21.1378 13.0165C20.8299 12.7774 20.6295 12.4257 20.5808 12.0389C20.5321 11.652 20.639 11.2616 20.8782 10.9537C21.1174 10.6456 21.469 10.4453 21.8558 10.3966C23.7169 10.1651 25.6059 10.3317 27.3976 10.8853C29.1894 11.4389 30.8431 12.367 32.2491 13.608C33.6552 14.849 34.7815 16.3745 35.5535 18.0837C36.3255 19.7927 36.7255 21.6463 36.727 23.5217C36.7265 25.5447 36.6008 27.5656 36.3506 29.573Z" fill="#BDBDBD"/>
</g>
</svg>
